<?xml version="1.0" encoding="UTF-8"?>
<svg version="1.1" xmlns="http://www.w3.org/2000/svg" width="140" height="83">
<path d="M0 0 C34.98 0 69.96 0 106 0 C106 1.65 106 3.3 106 5 C108.97 5 111.94 5 115 5 C115 6.32 115 7.64 115 9 C117.64 9.33 120.28 9.66 123 10 C123 30.79 123 51.58 123 73 C120.36 73.33 117.72 73.66 115 74 C115 75.32 115 76.64 115 78 C112.03 78 109.06 78 106 78 C106 79.65 106 81.3 106 83 C71.02 83 36.04 83 0 83 C0 81.35 0 79.7 0 78 C-2.97 78 -5.94 78 -9 78 C-9 76.35 -9 74.7 -9 73 C-11.64 73 -14.28 73 -17 73 C-17 52.21 -17 31.42 -17 10 C-14.36 10 -11.72 10 -9 10 C-9 8.35 -9 6.7 -9 5 C-6.03 5 -3.06 5 0 5 C0 3.35 0 1.7 0 0 Z " fill="#51AA2A" transform="translate(17,0)"/>
<path d="M0 0 C1.23556641 0.01740234 1.23556641 0.01740234 2.49609375 0.03515625 C3.32238281 0.04417969 4.14867187 0.05320312 5 0.0625 C5.63808594 0.07410156 6.27617187 0.08570313 6.93359375 0.09765625 C6.93359375 1.41765625 6.93359375 2.73765625 6.93359375 4.09765625 C9.57359375 4.42765625 12.21359375 4.75765625 14.93359375 5.09765625 C14.93359375 25.88765625 14.93359375 46.67765625 14.93359375 68.09765625 C12.29359375 68.42765625 9.65359375 68.75765625 6.93359375 69.09765625 C6.93359375 70.41765625 6.93359375 71.73765625 6.93359375 73.09765625 C3.96359375 73.09765625 0.99359375 73.09765625 -2.06640625 73.09765625 C-2.06640625 74.74765625 -2.06640625 76.39765625 -2.06640625 78.09765625 C-37.04640625 78.09765625 -72.02640625 78.09765625 -108.06640625 78.09765625 C-108.06640625 76.44765625 -108.06640625 74.79765625 -108.06640625 73.09765625 C-111.03640625 73.09765625 -114.00640625 73.09765625 -117.06640625 73.09765625 C-117.06640625 71.44765625 -117.06640625 69.79765625 -117.06640625 68.09765625 C-119.70640625 68.09765625 -122.34640625 68.09765625 -125.06640625 68.09765625 C-125.06640625 47.63765625 -125.06640625 27.17765625 -125.06640625 6.09765625 C-122.09640625 6.09765625 -119.12640625 6.09765625 -116.06640625 6.09765625 C-116.06640625 26.22765625 -116.06640625 46.35765625 -116.06640625 67.09765625 C-113.09640625 67.09765625 -110.12640625 67.09765625 -107.06640625 67.09765625 C-107.06640625 68.74765625 -107.06640625 70.39765625 -107.06640625 72.09765625 C-72.74640625 72.09765625 -38.42640625 72.09765625 -3.06640625 72.09765625 C-3.06640625 70.44765625 -3.06640625 68.79765625 -3.06640625 67.09765625 C-0.42640625 67.09765625 2.21359375 67.09765625 4.93359375 67.09765625 C4.92199219 65.87820312 4.91039062 64.65875 4.8984375 63.40234375 C4.78162318 44.29042556 5.37217803 25.19922891 5.93359375 6.09765625 C2.96359375 6.09765625 -0.00640625 6.09765625 -3.06640625 6.09765625 C-3.10912725 4.4315372 -3.10704457 2.7638274 -3.06640625 1.09765625 C-2.06640625 0.09765625 -2.06640625 0.09765625 0 0 Z " fill="#3D5C30" transform="translate(125.06640625,4.90234375)"/>
<path d="M0 0 C34.98 0 69.96 0 106 0 C105.67 3.63 105.34 7.26 105 11 C107.97 11 110.94 11 114 11 C114.10343989 31.35856211 114.20358646 51.66798583 113 72 C110.36 72 107.72 72 105 72 C105 73.32 105 74.64 105 76 C71.01 76 37.02 76 2 76 C2 75.01 2 74.02 2 73 C30.05 72.67 58.1 72.34 87 72 C87.33 70.35 87.66 68.7 88 67 C90.64 67 93.28 67 96 67 C96 65.35 96 63.7 96 62 C98.97 62 101.94 62 105 62 C105 46.82 105 31.64 105 16 C102.03 16 99.06 16 96 16 C96 14.35 96 12.7 96 11 C93.36 11 90.72 11 88 11 C88 9.35 88 7.7 88 6 C59.29 6 30.58 6 1 6 C1 7.32 1 8.64 1 10 C-1.97 10 -4.94 10 -8 10 C-8 8.35 -8 6.7 -8 5 C-5.36 5 -2.72 5 0 5 C0 3.35 0 1.7 0 0 Z " fill="#42961D" transform="translate(17,0)"/>
<path d="M0 0 C34.65 0 69.3 0 105 0 C105 1.65 105 3.3 105 5 C79.60273639 5.78254291 54.22043988 6.0941265 28.8125 6.0625 C27.7735729 6.06121597 27.7735729 6.06121597 26.71365738 6.05990601 C18.1424141 6.04852473 9.57120377 6.02846204 1 6 C1 7.32 1 8.64 1 10 C-1.97 10 -4.94 10 -8 10 C-8 8.35 -8 6.7 -8 5 C-5.36 5 -2.72 5 0 5 C0 3.35 0 1.7 0 0 Z " fill="#010000" transform="translate(17,0)"/>
<path d="M0 0 C2.97 0 5.94 0 9 0 C8.67 20.13 8.34 40.26 8 61 C5.36 61 2.72 61 0 61 C0 40.87 0 20.74 0 0 Z " fill="#040403" transform="translate(0,11)"/>
<path d="M0 0 C2.64 0 5.28 0 8 0 C8 20.13 8 40.26 8 61 C5.36 61 2.72 61 0 61 C0 40.87 0 20.74 0 0 Z " fill="#020301" transform="translate(131,11)"/>
<path d="M0 0 C34.32 0 68.64 0 104 0 C104 1.32 104 2.64 104 4 C69.68 4 35.36 4 0 4 C0 2.68 0 1.36 0 0 Z " fill="#010100" transform="translate(18,78)"/>
<path d="M0 0 C0.33 0 0.66 0 1 0 C1 19.8 1 39.6 1 60 C3.97 60 6.94 60 10 60 C10 63.3 10 66.6 10 70 C44.32 70 78.64 70 114 70 C114 70.33 114 70.66 114 71 C79.35 71 44.7 71 9 71 C9 69.35 9 67.7 9 66 C6.03 66 3.06 66 0 66 C0 64.35 0 62.7 0 61 C-2.64 61 -5.28 61 -8 61 C-8 60.67 -8 60.34 -8 60 C-5.36 60 -2.72 60 0 60 C0 40.2 0 20.4 0 0 Z " fill="#293526" transform="translate(8,12)"/>
<path d="M0 0 C34.65 0 69.3 0 105 0 C105 0.33 105 0.66 105 1 C70.68 1 36.36 1 1 1 C1 2.32 1 3.64 1 5 C21.13 5 41.26 5 62 5 C62 5.33 62 5.66 62 6 C41.87 6 21.74 6 1 6 C1 7.32 1 8.64 1 10 C-1.97 10 -4.94 10 -8 10 C-8 8.35 -8 6.7 -8 5 C-5.36 5 -2.72 5 0 5 C0 3.35 0 1.7 0 0 Z " fill="#2A3F20" transform="translate(17,0)"/>
<path d="M0 0 C0.33 0 0.66 0 1 0 C1.33 9.57 1.66 19.14 2 29 C-0.97 29 -3.94 29 -7 29 C-7 30.65 -7 32.3 -7 34 C-7.33 34 -7.66 34 -8 34 C-8 30.37 -8 26.74 -8 23 C-5.36 23 -2.72 23 0 23 C0 15.41 0 7.82 0 0 Z " fill="#4A6D3B" transform="translate(130,49)"/>
<path d="M0 0 C2.64 0 5.28 0 8 0 C8 1.65 8 3.3 8 5 C5.36 5 2.72 5 0 5 C0 3.35 0 1.7 0 0 Z " fill="#020201" transform="translate(9,5)"/>
<path d="M0 0 C2.31 0 4.62 0 7 0 C7 1.65 7 3.3 7 5 C4.36 5 1.72 5 -1 5 C-0.67 3.35 -0.34 1.7 0 0 Z " fill="#040602" transform="translate(123,5)"/>
<path d="M0 0 C2.64 0 5.28 0 8 0 C8.33 1.32 8.66 2.64 9 4 C6.03 4 3.06 4 0 4 C0 2.68 0 1.36 0 0 Z " fill="#020501" transform="translate(122,73)"/>
<path d="M0 0 C2.64 0 5.28 0 8 0 C8 1.32 8 2.64 8 4 C5.36 4 2.72 4 0 4 C0 2.68 0 1.36 0 0 Z " fill="#010100" transform="translate(9,73)"/>
</svg>
