<?xml version="1.0" encoding="UTF-8"?>
<svg version="1.1" xmlns="http://www.w3.org/2000/svg" width="140" height="83">
<path d="M0 0 C34.98 0 69.96 0 106 0 C106 1.65 106 3.3 106 5 C108.97 5 111.94 5 115 5 C115 6.32 115 7.64 115 9 C117.64 9.33 120.28 9.66 123 10 C123 30.79 123 51.58 123 73 C120.36 73.33 117.72 73.66 115 74 C115 75.32 115 76.64 115 78 C112.03 78 109.06 78 106 78 C106 79.65 106 81.3 106 83 C71.02 83 36.04 83 0 83 C0 81.35 0 79.7 0 78 C-2.97 78 -5.94 78 -9 78 C-9 76.35 -9 74.7 -9 73 C-11.64 73 -14.28 73 -17 73 C-17 52.21 -17 31.42 -17 10 C-14.36 10 -11.72 10 -9 10 C-9 8.35 -9 6.7 -9 5 C-6.03 5 -3.06 5 0 5 C0 3.35 0 1.7 0 0 Z " fill="#BCD400" transform="translate(17,0)"/>
<path d="M0 0 C34.98 0 69.96 0 106 0 C106 1.65 106 3.3 106 5 C108.97 5 111.94 5 115 5 C115 6.32 115 7.64 115 9 C117.64 9.33 120.28 9.66 123 10 C123 30.79 123 51.58 123 73 C120.36 73.33 117.72 73.66 115 74 C115 75.32 115 76.64 115 78 C112.03 78 109.06 78 106 78 C106 79.65 106 81.3 106 83 C71.02 83 36.04 83 0 83 C0 81.35 0 79.7 0 78 C-2.97 78 -5.94 78 -9 78 C-9 76.35 -9 74.7 -9 73 C-11.64 73 -14.28 73 -17 73 C-17 52.54 -17 32.08 -17 11 C-14.03 11 -11.06 11 -8 11 C-8 31.13 -8 51.26 -8 72 C-5.03 72 -2.06 72 1 72 C1 73.65 1 75.3 1 77 C35.32 77 69.64 77 105 77 C103.03571633 75.03571633 100.01702837 75.87976083 97.40252686 75.87557983 C96.4523468 75.87917511 95.50216675 75.88277039 94.52319336 75.88647461 C93.52818314 75.88632858 92.53317291 75.88618256 91.50801086 75.8860321 C88.20193338 75.88673169 84.89591146 75.89452621 81.58984375 75.90234375 C79.30440807 75.90420777 77.01897199 75.90563175 74.73353577 75.90663147 C68.70501613 75.91045793 62.67652041 75.9202893 56.64801025 75.93133545 C50.50167159 75.94154683 44.35532907 75.9461285 38.20898438 75.95117188 C26.13931238 75.96191146 14.06965818 75.9789894 2 76 C2 75.01 2 74.02 2 73 C30.05 72.67 58.1 72.34 87 72 C87.33 70.35 87.66 68.7 88 67 C90.64 67 93.28 67 96 67 C96 65.35 96 63.7 96 62 C98.97 62 101.94 62 105 62 C105 46.82 105 31.64 105 16 C102.03 16 99.06 16 96 16 C96 14.35 96 12.7 96 11 C93.36 11 90.72 11 88 11 C88 9.35 88 7.7 88 6 C59.29 6 30.58 6 1 6 C1 7.32 1 8.64 1 10 C-1.97 10 -4.94 10 -8 10 C-8 8.35 -8 6.7 -8 5 C-5.36 5 -2.72 5 0 5 C0 3.35 0 1.7 0 0 Z " fill="#9DB200" transform="translate(17,0)"/>
<path d="M0 0 C2.97 0 5.94 0 9 0 C9 20.13 9 40.26 9 61 C11.97 61 14.94 61 18 61 C18 62.65 18 64.3 18 66 C52.32 66 86.64 66 122 66 C122 64.68 122 63.36 122 62 C124.97 62 127.94 62 131 62 C131.33 63.65 131.66 65.3 132 67 C129.03 67 126.06 67 123 67 C123 68.65 123 70.3 123 72 C88.02 72 53.04 72 17 72 C17 70.35 17 68.7 17 67 C14.03 67 11.06 67 8 67 C8 65.35 8 63.7 8 62 C5.36 62 2.72 62 0 62 C0 41.54 0 21.08 0 0 Z " fill="#040403" transform="translate(0,11)"/>
<path d="M0 0 C1.23556641 0.01740234 1.23556641 0.01740234 2.49609375 0.03515625 C3.32238281 0.04417969 4.14867187 0.05320312 5 0.0625 C5.63808594 0.07410156 6.27617187 0.08570313 6.93359375 0.09765625 C6.93359375 1.41765625 6.93359375 2.73765625 6.93359375 4.09765625 C9.57359375 4.42765625 12.21359375 4.75765625 14.93359375 5.09765625 C14.93359375 25.88765625 14.93359375 46.67765625 14.93359375 68.09765625 C11.96359375 68.09765625 8.99359375 68.09765625 5.93359375 68.09765625 C5.93359375 47.63765625 5.93359375 27.17765625 5.93359375 6.09765625 C2.96359375 6.09765625 -0.00640625 6.09765625 -3.06640625 6.09765625 C-3.10912725 4.4315372 -3.10704457 2.7638274 -3.06640625 1.09765625 C-2.06640625 0.09765625 -2.06640625 0.09765625 0 0 Z " fill="#030300" transform="translate(125.06640625,4.90234375)"/>
<path d="M0 0 C34.65 0 69.3 0 105 0 C105 1.65 105 3.3 105 5 C70.68 5 36.36 5 1 5 C1 6.65 1 8.3 1 10 C-1.97 10 -4.94 10 -8 10 C-8 8.35 -8 6.7 -8 5 C-5.36 5 -2.72 5 0 5 C0 3.35 0 1.7 0 0 Z " fill="#010000" transform="translate(17,0)"/>
<path d="M0 0 C34.32 0 68.64 0 104 0 C104 1.32 104 2.64 104 4 C69.68 4 35.36 4 0 4 C0 2.68 0 1.36 0 0 Z " fill="#010000" transform="translate(18,78)"/>
<path d="M0 0 C0.33 0 0.66 0 1 0 C1 19.8 1 39.6 1 60 C3.97 60 6.94 60 10 60 C10 61.65 10 63.3 10 65 C44.32 65 78.64 65 114 65 C114 63.68 114 62.36 114 61 C116.97 61 119.94 61 123 61 C123.33 62.65 123.66 64.3 124 66 C121.03 66 118.06 66 115 66 C115 67.65 115 69.3 115 71 C80.02 71 45.04 71 9 71 C9 69.35 9 67.7 9 66 C6.03 66 3.06 66 0 66 C0 64.35 0 62.7 0 61 C-2.64 61 -5.28 61 -8 61 C-8 60.67 -8 60.34 -8 60 C-5.36 60 -2.72 60 0 60 C0 40.2 0 20.4 0 0 Z M10 66 C10 67.32 10 68.64 10 70 C44.32 70 78.64 70 114 70 C114 68.68 114 67.36 114 66 C79.68 66 45.36 66 10 66 Z " fill="#3F4719" transform="translate(8,12)"/>
<path d="M0 0 C34.65 0 69.3 0 105 0 C105 0.33 105 0.66 105 1 C70.68 1 36.36 1 1 1 C1 3.97 1 6.94 1 10 C-1.97 10 -4.94 10 -8 10 C-8 8.35 -8 6.7 -8 5 C-5.36 5 -2.72 5 0 5 C0 3.35 0 1.7 0 0 Z " fill="#1F1F1A" transform="translate(17,0)"/>
<path d="M0 0 C1.23556641 0.01740234 1.23556641 0.01740234 2.49609375 0.03515625 C3.32238281 0.04417969 4.14867187 0.05320312 5 0.0625 C5.63808594 0.07410156 6.27617187 0.08570313 6.93359375 0.09765625 C6.93359375 1.41765625 6.93359375 2.73765625 6.93359375 4.09765625 C9.57359375 4.42765625 12.21359375 4.75765625 14.93359375 5.09765625 C14.93359375 25.88765625 14.93359375 46.67765625 14.93359375 68.09765625 C11.96359375 68.09765625 8.99359375 68.09765625 5.93359375 68.09765625 C5.93359375 67.76765625 5.93359375 67.43765625 5.93359375 67.09765625 C8.57359375 67.09765625 11.21359375 67.09765625 13.93359375 67.09765625 C13.93359375 46.96765625 13.93359375 26.83765625 13.93359375 6.09765625 C8.32359375 6.09765625 2.71359375 6.09765625 -3.06640625 6.09765625 C-3.06640625 0.14491523 -3.06640625 0.14491523 0 0 Z " fill="#4F5046" transform="translate(125.06640625,4.90234375)"/>
<path d="M0 0 C2.97 0 5.94 0 9 0 C9.495 2.475 9.495 2.475 10 5 C7.03 5 4.06 5 1 5 C1 6.65 1 8.3 1 10 C0.67 10 0.34 10 0 10 C0 8.35 0 6.7 0 5 C-23.43 5 -46.86 5 -71 5 C-71 4.67 -71 4.34 -71 4 C-47.57 4 -24.14 4 0 4 C0 2.68 0 1.36 0 0 Z " fill="#717E15" transform="translate(122,73)"/>
<path d="M0 0 C2.64 0 5.28 0 8 0 C8 1.65 8 3.3 8 5 C5.36 5 2.72 5 0 5 C0 3.35 0 1.7 0 0 Z " fill="#030202" transform="translate(9,5)"/>
<path d="M0 0 C2.31 0 4.62 0 7 0 C7 1.65 7 3.3 7 5 C4.36 5 1.72 5 -1 5 C-0.67 3.35 -0.34 1.7 0 0 Z " fill="#060601" transform="translate(123,5)"/>
<path d="M0 0 C2.97 0 5.94 0 9 0 C9 1.32 9 2.64 9 4 C6.03 4 3.06 4 0 4 C0 2.68 0 1.36 0 0 Z " fill="#070704" transform="translate(122,73)"/>
<path d="M0 0 C2.64 0 5.28 0 8 0 C8 1.32 8 2.64 8 4 C5.36 4 2.72 4 0 4 C0 2.68 0 1.36 0 0 Z " fill="#010100" transform="translate(9,73)"/>
</svg>
